{
    "asset" : {
        "generator" : "Khronos glTF Blender I/O v1.0.5",
        "version" : "2.0"
    },
    "scene" : 0,
    "scenes" : [
        {
            "name" : "Scene",
            "nodes" : [
                0
            ]
        }
    ],
    "nodes" : [
        {
            "mesh" : 0,
            "name" : "Cube"
        }
    ],
    "meshes" : [
        {
            "name" : "Cube.001",
            "primitives" : [
                {
                    "attributes" : {
                        "POSITION" : 0,
                        "NORMAL" : 1,
                        "TEXCOORD_0" : 2
                    },
                    "indices" : 3
                }
            ]
        }
    ],
    "accessors" : [
        {
            "bufferView" : 0,
            "componentType" : 5126,
            "count" : 2062,
            "max" : [
                0.4786911904811859,
                0.17332231998443604,
                0.389884352684021
            ],
            "min" : [
                -0.4786910116672516,
                -0.17514526844024658,
                -0.6432739496231079
            ],
            "type" : "VEC3"
        },
        {
            "bufferView" : 1,
            "componentType" : 5126,
            "count" : 2062,
            "type" : "VEC3"
        },
        {
            "bufferView" : 2,
            "componentType" : 5126,
            "count" : 2062,
            "type" : "VEC2"
        },
        {
            "bufferView" : 3,
            "componentType" : 5123,
            "count" : 2976,
            "type" : "SCALAR"
        }
    ],
    "bufferViews" : [
        {
            "buffer" : 0,
            "byteLength" : 24744,
            "byteOffset" : 0
        },
        {
            "buffer" : 0,
            "byteLength" : 24744,
            "byteOffset" : 24744
        },
        {
            "buffer" : 0,
            "byteLength" : 16496,
            "byteOffset" : 49488
        },
        {
            "buffer" : 0,
            "byteLength" : 5952,
            "byteOffset" : 65984
        }
    ],
    "buffers" : [
        {
            "byteLength" : 71936,
            "uri" : "data:application/octet-stream;base64,"
        }
    ]
}
